# xmcd CD database file
# Generated: Vi feb 6 14:06:10 2004 by KSCD
# 
# Track frame offsets:
#       150
#       15814
#       28663
#       43757
#       57931
#       71980
#       86639
#       101173
#       116012
#       129906
#       143725
#       159114
#       170631
#       185363
#       199612
#       216596
#
# Disc length: 3062 seconds
#
# Revision: 2
# Processed by: cddbd v1.5PL3 Copyright (c) Steve Scherf et al.
# Submitted via: Kscd 1.3.3
#
DISCID=df0bf410
DTITLE=Frank Sinatra - Selectin of Frank Sinatra
DYEAR=1900
DGENRE=Blues
TTITLE0=someoane to watch over me
TTITLE1=
TTITLE2=
TTITLE3=
TTITLE4=
TTITLE5=
TTITLE6=
TTITLE7=
TTITLE8=
TTITLE9=
TTITLE10=
TTITLE11=
TTITLE12=
TTITLE13=
TTITLE14=
TTITLE15=
EXTD=
EXTT0=
EXTT1=
EXTT2=
EXTT3=
EXTT4=
EXTT5=
EXTT6=
EXTT7=
EXTT8=
EXTT9=
EXTT10=
EXTT11=
EXTT12=
EXTT13=
EXTT14=
EXTT15=
PLAYORDER=
